<?xml version="1.0" standalone="no"?>
<!DOCTYPE svg PUBLIC "-//W3C//DTD SVG 20010904//EN"
 "http://www.w3.org/TR/2001/REC-SVG-20010904/DTD/svg10.dtd">
<svg version="1.0" xmlns="http://www.w3.org/2000/svg"
 width="2000.000000pt" height="2000.000000pt" viewBox="0 0 2000.000000 2000.000000"
 preserveAspectRatio="xMidYMid meet">
<metadata>
Created by potrace 1.11, written by Peter Selinger 2001-2013
</metadata>
<g transform="translate(0.000000,2000.000000) scale(0.100000,-0.100000)"
fill="#000000" stroke="none">
<path d="M1960 15540 c-11 -11 -20 -28 -20 -37 0 -10 902 -2722 2004 -6028
1587 -4759 2008 -6012 2025 -6023 12 -8 31 -12 46 -8 19 5 382 542 1764 2615
1249 1873 1739 2616 1737 2633 -2 12 -122 201 -267 418 -145 217 -266 400
-268 405 -2 6 -7 12 -10 15 -8 6 -665 992 -670 1005 -2 6 -7 12 -10 15 -8 7
-905 1352 -910 1365 -2 6 -7 12 -10 15 -8 7 -625 932 -630 945 -2 6 -7 12 -10
15 -8 7 -1265 1892 -1270 1905 -2 6 -7 12 -10 15 -3 3 -113 167 -245 365 -131
198 -245 366 -254 373 -12 9 -327 12 -1494 12 -1465 0 -1478 0 -1498 -20z"/>
<path d="M5960 15540 c-11 -11 -20 -29 -20 -40 0 -11 132 -216 293 -457 160
-241 294 -442 296 -448 2 -5 7 -12 10 -15 8 -7 1905 -2852 1910 -2865 2 -5 7
-12 10 -15 8 -6 2545 -3812 2550 -3825 2 -5 7 -12 10 -15 8 -7 1265 -1892
1270 -1905 2 -5 7 -12 10 -15 3 -3 379 -564 834 -1247 655 -984 833 -1244 852
-1249 15 -4 34 0 47 8 16 11 193 531 844 2483 453 1359 821 2480 819 2492 -2
12 -18 44 -37 70 -18 26 -37 56 -43 65 -5 10 -221 334 -480 720 -258 387 -474
710 -480 719 -5 9 -23 36 -40 60 -16 24 -34 52 -40 61 -5 9 -59 90 -120 180
-60 90 -114 171 -120 180 -5 10 -149 226 -320 480 -170 255 -314 471 -320 480
-44 76 -2732 4096 -2744 4105 -13 10 -562 12 -2493 13 -2465 0 -2478 0 -2498
-20z"/>
<path d="M11962 15544 c-12 -8 -22 -26 -22 -39 0 -15 634 -975 1733 -2622 952
-1429 1734 -2602 1736 -2608 2 -5 7 -12 10 -15 3 -3 126 -186 273 -406 147
-221 274 -404 283 -408 31 -12 55 -6 69 17 18 27 2007 5989 2013 6033 3 25 -1
36 -19 48 -20 15 -287 16 -3038 16 -2713 0 -3018 -2 -3038 -16z"/>
</g>
</svg>
